<svg width="32" height="33" viewBox="0 0 32 33" fill="none" xmlns="http://www.w3.org/2000/svg">
<path d="M28 6.5H4C3.46957 6.5 2.96086 6.71071 2.58579 7.08579C2.21071 7.46086 2 7.96957 2 8.5V24.5C2 25.0304 2.21071 25.5391 2.58579 25.9142C2.96086 26.2893 3.46957 26.5 4 26.5H28C28.5304 26.5 29.0391 26.2893 29.4142 25.9142C29.7893 25.5391 30 25.0304 30 24.5V8.5C30 7.96957 29.7893 7.46086 29.4142 7.08579C29.0391 6.71071 28.5304 6.5 28 6.5ZM25.8 8.5L16 15.28L6.2 8.5H25.8ZM4 24.5V9.41L15.43 17.32C15.5974 17.4361 15.7963 17.4984 16 17.4984C16.2037 17.4984 16.4026 17.4361 16.57 17.32L28 9.41V24.5H4Z" fill="white"/>
</svg>
