<svg width="25" height="25" viewBox="0 0 25 25" fill="none" xmlns="http://www.w3.org/2000/svg">
<path d="M11.054 6.74003L7.67099 2.83503C7.28099 2.38503 6.56599 2.38703 6.11299 2.84103L3.33099 5.62803C2.50299 6.45703 2.26599 7.68803 2.74499 8.67503C5.60661 14.6 10.385 19.3851 16.306 22.255C17.292 22.734 18.522 22.497 19.35 21.668L22.158 18.855C22.613 18.4 22.614 17.681 22.16 17.291L18.24 13.926C17.83 13.574 17.193 13.62 16.782 14.032L15.418 15.398C15.3482 15.4712 15.2562 15.5195 15.1563 15.5354C15.0564 15.5513 14.9541 15.5339 14.865 15.486C12.6354 14.2021 10.786 12.3503 9.50499 10.119C9.45702 10.0298 9.43964 9.92726 9.45554 9.82719C9.47144 9.72711 9.51972 9.63502 9.59299 9.56503L10.953 8.20403C11.365 7.79003 11.41 7.15003 11.054 6.73903V6.74003Z" stroke="white" stroke-width="2" stroke-linecap="round" stroke-linejoin="round"/>
</svg>
