<svg width="40" height="40" viewBox="0 0 40 40" fill="none" xmlns="http://www.w3.org/2000/svg">
<path d="M10.1448 15.4138V25.757C10.1448 27.1325 9.06401 28.2311 7.6885 28.2311C6.32192 28.2311 5 27.1235 5 25.757V15.4138C5 14.0651 6.32192 12.9576 7.6885 12.9576C9.03722 12.9576 10.1448 14.0651 10.1448 15.4138ZM11.1094 29.4369C11.1094 30.9017 12.2884 32.0807 13.7533 32.0807H15.5307L15.5575 37.5381C15.5575 40.834 20.4879 40.8072 20.4879 37.5381V32.0807H23.8106V37.5381C23.8106 40.8161 28.7678 40.8251 28.7678 37.5381V32.0807H30.572C32.019 32.0807 33.198 30.9017 33.198 29.4369V13.4131H11.1094V29.4369ZM33.2605 12.5467H11.0112C11.0112 8.72385 13.2977 5.40119 16.6918 3.6684L14.9859 0.515441C14.7358 0.0777783 15.3699 -0.19911 15.5843 0.176029L17.3171 3.35578C20.4343 1.97134 24.016 2.04279 26.9903 3.35578L28.7142 0.184961C28.9375 -0.19911 29.5627 0.08671 29.3126 0.524373L27.6066 3.6684C30.9739 5.40119 33.2605 8.72385 33.2605 12.5467ZM18.0138 7.5895C18.0138 7.08038 17.6029 6.65165 17.0759 6.65165C16.5668 6.65165 16.1649 7.08038 16.1649 7.5895C16.1649 8.09862 16.5757 8.52735 17.0759 8.52735C17.6029 8.52735 18.0138 8.09862 18.0138 7.5895ZM28.1425 7.5895C28.1425 7.08038 27.7317 6.65165 27.2315 6.65165C26.7045 6.65165 26.2936 7.08038 26.2936 7.5895C26.2936 8.09862 26.7045 8.52735 27.2315 8.52735C27.7317 8.52735 28.1425 8.09862 28.1425 7.5895ZM36.61 12.9576C35.2613 12.9576 34.1537 14.0383 34.1537 15.4138V25.757C34.1537 27.1325 35.2613 28.2311 36.61 28.2311C37.9855 28.2311 39.2985 27.1235 39.2985 25.757V15.4138C39.2985 14.0383 37.9765 12.9576 36.61 12.9576Z" fill="#2771D0"/>
</svg>
