<svg width="52" height="40" viewBox="0 0 52 40" fill="none" xmlns="http://www.w3.org/2000/svg">
<path d="M22.7891 39.958L18.0234 38.5752C17.5234 38.4346 17.2422 37.9112 17.3828 37.4112L28.0469 0.676783C28.1875 0.176783 28.7109 -0.104467 29.2109 0.0361583L33.9766 1.41897C34.4766 1.5596 34.7578 2.08303 34.6172 2.58303L23.9531 39.3174C23.8047 39.8174 23.2891 40.1065 22.7891 39.958ZM13.8828 31.1924L17.2812 27.5674C17.6406 27.1846 17.6172 26.5752 17.2188 26.2237L10.1406 19.9971L17.2188 13.7705C17.6172 13.419 17.6484 12.8096 17.2812 12.4268L13.8828 8.80178C13.5312 8.42678 12.9375 8.40335 12.5547 8.76272L1.29688 19.3096C0.898437 19.6768 0.898437 20.3096 1.29688 20.6768L12.5547 31.2315C12.9375 31.5908 13.5312 31.5752 13.8828 31.1924ZM39.4453 31.2393L50.7031 20.6846C51.1016 20.3174 51.1016 19.6846 50.7031 19.3174L39.4453 8.75491C39.0703 8.40335 38.4766 8.41897 38.1172 8.79397L34.7188 12.419C34.3594 12.8018 34.3828 13.4112 34.7812 13.7627L41.8594 19.9971L34.7812 26.2237C34.3828 26.5752 34.3516 27.1846 34.7188 27.5674L38.1172 31.1924C38.4688 31.5752 39.0625 31.5908 39.4453 31.2393Z" fill="#2771D0"/>
</svg>
