<svg width="25" height="24" viewBox="0 0 25 24" fill="none" xmlns="http://www.w3.org/2000/svg">
<path d="M11.7001 2.39999C10.8161 2.39999 10.1001 3.11599 10.1001 3.99999H3.7001C2.8161 3.99999 2.1001 4.71599 2.1001 5.59999V12.8C2.1001 13.684 2.8161 14.4 3.7001 14.4H21.3001C22.1841 14.4 22.9001 13.684 22.9001 12.8V5.59999C22.9001 4.71599 22.1841 3.99999 21.3001 3.99999H14.9001C14.9001 3.11599 14.1841 2.39999 13.3001 2.39999H11.7001ZM12.5001 11.2C12.9417 11.2 13.3001 11.5584 13.3001 12C13.3001 12.4416 12.9417 12.8 12.5001 12.8C12.0585 12.8 11.7001 12.4416 11.7001 12C11.7001 11.5584 12.0585 11.2 12.5001 11.2ZM2.1001 15.5547V18.4C2.1001 19.284 2.8161 20 3.7001 20H21.3001C22.1841 20 22.9001 19.284 22.9001 18.4V15.5547C22.4273 15.8299 21.8857 16 21.3001 16H3.7001C3.1145 16 2.5729 15.8299 2.1001 15.5547Z" fill="#2771D0"/>
</svg>
