<svg width="25" height="24" viewBox="0 0 25 24" fill="none" xmlns="http://www.w3.org/2000/svg">
<path d="M3.125 20.625C3.125 21.0398 3.46016 21.375 3.875 21.375H21.125C21.5398 21.375 21.875 21.0398 21.875 20.625V10.7812H3.125V20.625ZM21.125 4.3125H17.1875V2.8125C17.1875 2.70937 17.1031 2.625 17 2.625H15.6875C15.5844 2.625 15.5 2.70937 15.5 2.8125V4.3125H9.5V2.8125C9.5 2.70937 9.41563 2.625 9.3125 2.625H8C7.89687 2.625 7.8125 2.70937 7.8125 2.8125V4.3125H3.875C3.46016 4.3125 3.125 4.64766 3.125 5.0625V9.1875H21.875V5.0625C21.875 4.64766 21.5398 4.3125 21.125 4.3125Z" fill="#2771D0"/>
</svg>
