<svg width="30" height="30" viewBox="0 0 30 30" fill="none" xmlns="http://www.w3.org/2000/svg">
<circle cx="15" cy="15" r="14" stroke="white" stroke-width="2"/>
<path d="M11.8 20.3333H9.1333V12.3333H11.8V20.3333ZM10.4672 11.2667C9.72957 11.2667 9.1333 10.6688 9.1333 9.9328C9.1333 9.1968 9.73063 8.6 10.4672 8.6C11.2021 8.6 11.8 9.19787 11.8 9.9328C11.8 10.6688 11.2021 11.2667 10.4672 11.2667ZM21.4 20.3333H18.8362V16.44C18.8362 15.5115 18.8186 14.3173 17.5034 14.3173C16.1685 14.3173 15.9632 15.3285 15.9632 16.3728V20.3333H13.4V12.3275H15.8608V13.4213H15.8954C16.2378 12.792 17.0746 12.1285 18.3226 12.1285C20.92 12.1285 21.4 13.7867 21.4 15.9424C21.4 15.9424 21.4 20.3333 21.4 20.3333Z" fill="white"/>
</svg>
