<svg width="40" height="40" viewBox="0 0 40 40" fill="none" xmlns="http://www.w3.org/2000/svg">
<path d="M20 40C17.2667 40 14.6833 39.4747 12.25 38.424C9.81667 37.3747 7.692 35.9413 5.876 34.124C4.05867 32.308 2.62533 30.1833 1.576 27.75C0.525334 25.3167 0 22.7333 0 20C0 17.2333 0.525334 14.642 1.576 12.226C2.62533 9.80867 4.05867 7.692 5.876 5.876C7.692 4.05867 9.81667 2.62467 12.25 1.574C14.6833 0.524667 17.2667 0 20 0C22.7667 0 25.358 0.524667 27.774 1.574C30.1913 2.62467 32.308 4.05867 34.124 5.876C35.9413 7.692 37.3747 9.80867 38.424 12.226C39.4747 14.642 40 17.2333 40 20C40 22.7333 39.4747 25.3167 38.424 27.75C37.3747 30.1833 35.9413 32.308 34.124 34.124C32.308 35.9413 30.1913 37.3747 27.774 38.424C25.358 39.4747 22.7667 40 20 40ZM27.9 12H33.8C32.8333 10.3333 31.6247 8.88333 30.174 7.65C28.7247 6.41667 27.0667 5.5 25.2 4.9C25.8 6 26.3253 7.14133 26.776 8.324C27.2253 9.508 27.6 10.7333 27.9 12ZM16.2 12H23.8C23.4 10.5333 22.8833 9.15 22.25 7.85C21.6167 6.55 20.8667 5.3 20 4.1C19.1333 5.3 18.3833 6.55 17.75 7.85C17.1167 9.15 16.6 10.5333 16.2 12ZM4.5 24H11.3C11.2 23.3333 11.1247 22.6747 11.074 22.024C11.0247 21.3747 11 20.7 11 20C11 19.3 11.0247 18.6253 11.074 17.976C11.1247 17.3253 11.2 16.6667 11.3 16H4.5C4.33333 16.6667 4.208 17.3253 4.124 17.976C4.04133 18.6253 4 19.3 4 20C4 20.7 4.04133 21.3747 4.124 22.024C4.208 22.6747 4.33333 23.3333 4.5 24ZM14.8 35.1C14.2 34 13.6753 32.858 13.226 31.674C12.7753 30.4913 12.4 29.2667 12.1 28H6.2C7.16667 29.6667 8.37467 31.1167 9.824 32.35C11.2747 33.5833 12.9333 34.5 14.8 35.1ZM6.2 12H12.1C12.4 10.7333 12.7753 9.508 13.226 8.324C13.6753 7.14133 14.2 6 14.8 4.9C12.9333 5.5 11.2747 6.41667 9.824 7.65C8.37467 8.88333 7.16667 10.3333 6.2 12ZM20 35.9C20.8667 34.7 21.6167 33.45 22.25 32.15C22.8833 30.85 23.4 29.4667 23.8 28H16.2C16.6 29.4667 17.1167 30.85 17.75 32.15C18.3833 33.45 19.1333 34.7 20 35.9ZM15.3 24H24.7C24.8 23.3333 24.8753 22.6747 24.926 22.024C24.9753 21.3747 25 20.7 25 20C25 19.3 24.9753 18.6253 24.926 17.976C24.8753 17.3253 24.8 16.6667 24.7 16H15.3C15.2 16.6667 15.1253 17.3253 15.076 17.976C15.0253 18.6253 15 19.3 15 20C15 20.7 15.0253 21.3747 15.076 22.024C15.1253 22.6747 15.2 23.3333 15.3 24ZM25.2 35.1C27.0667 34.5 28.7247 33.5833 30.174 32.35C31.6247 31.1167 32.8333 29.6667 33.8 28H27.9C27.6 29.2667 27.2253 30.4913 26.776 31.674C26.3253 32.858 25.8 34 25.2 35.1ZM28.7 24H35.5C35.6667 23.3333 35.792 22.6747 35.876 22.024C35.9587 21.3747 36 20.7 36 20C36 19.3 35.9587 18.6253 35.876 17.976C35.792 17.3253 35.6667 16.6667 35.5 16H28.7C28.8 16.6667 28.8747 17.3253 28.924 17.976C28.9747 18.6253 29 19.3 29 20C29 20.7 28.9747 21.3747 28.924 22.024C28.8747 22.6747 28.8 23.3333 28.7 24Z" fill="#2771D0"/>
</svg>
